<svg xmlns="http://www.w3.org/2000/svg" width="24" height="24"><path d="M19.7 23.5H4.3c-2.1 0-3.8-1.7-3.8-3.8V4.3C.5 2.2 2.2.5 4.3.5h15.3c2.1 0 3.8 1.7 3.8 3.8v15.3c.1 2.2-1.6 3.9-3.7 3.9zM4.3 1.5c-1.6 0-2.8 1.3-2.8 2.8v15.3c0 1.6 1.3 2.8 2.8 2.8h15.3c1.6 0 2.8-1.3 2.8-2.8V4.3c0-1.6-1.3-2.8-2.8-2.8H4.3z"/><path d="M8.1 15.9c-.3 0-.5-.2-.5-.5v-4.8c0-.8-.7-1.5-1.5-1.5s-1.5.7-1.5 1.5v4.8c0 .3-.2.5-.5.5s-.5-.2-.5-.5v-4.8c0-1.4 1.1-2.5 2.5-2.5s2.5 1.1 2.5 2.5v4.8c0 .3-.2.5-.5.5z"/><path d="M4.2 13.9c-.3 0-.5-.2-.5-.5V8.6c0-.3.2-.5.5-.5s.5.2.5.5v4.8c0 .2-.2.5-.5.5zM12.1 15.9c-.3 0-.5-.2-.5-.5v-4.8c0-.8-.7-1.5-1.5-1.5s-1.5.7-1.5 1.5v4.8c0 .3-.2.5-.5.5s-.5-.2-.5-.5v-4.8c0-1.4 1.1-2.5 2.5-2.5s2.5 1.1 2.5 2.5v4.8c0 .3-.3.5-.5.5z"/><path d="M16.5 15.9c-1 0-1.9-.4-2.7-1.1-1.5-1.5-1.5-3.9 0-5.3 1.5-1.5 3.9-1.5 5.3 0 .6.6 1 1.4 1.1 2.2 0 .1 0 .3-.1.4-.1.1-.2.2-.4.2h-3.9c-.3 0-.5-.2-.5-.5s.2-.5.5-.5H19c-.1-.4-.4-.8-.7-1.1-1.1-1.1-2.8-1.1-3.9 0s-1.1 2.8 0 3.9 2.8 1.1 3.9 0c.2-.2.3-.4.5-.6.1-.2.4-.3.7-.2.2.1.3.4.2.7-.2.4-.4.6-.6.9-.6.6-1.6 1-2.6 1z"/></svg>